<?xml version="1.0" encoding="UTF-8" standalone="no"?>
<!-- Created with Inkscape (http://www.inkscape.org/) -->

<svg
   width="210mm"
   height="297mm"
   viewBox="0 0 210 297"
   version="1.1"
   id="svg1"
   inkscape:version="1.3.2 (091e20e, 2023-11-25, custom)"
   sodipodi:docname="Logo.svg"
   xmlns:inkscape="http://www.inkscape.org/namespaces/inkscape"
   xmlns:sodipodi="http://sodipodi.sourceforge.net/DTD/sodipodi-0.dtd"
   xmlns="http://www.w3.org/2000/svg"
   xmlns:svg="http://www.w3.org/2000/svg">
  <sodipodi:namedview
     id="namedview1"
     pagecolor="#ffffff"
     bordercolor="#000000"
     borderopacity="0.25"
     inkscape:showpageshadow="2"
     inkscape:pageopacity="0.0"
     inkscape:pagecheckerboard="0"
     inkscape:deskcolor="#d1d1d1"
     inkscape:document-units="mm"
     inkscape:zoom="0.25"
     inkscape:cx="452"
     inkscape:cy="850"
     inkscape:window-width="1366"
     inkscape:window-height="697"
     inkscape:window-x="-8"
     inkscape:window-y="-8"
     inkscape:window-maximized="1"
     inkscape:current-layer="layer1" />
  <defs
     id="defs1" />
  <g
     inkscape:label="Capa 1"
     inkscape:groupmode="layer"
     id="layer1">
    <path
       id="path1"
       style="fill:#ffcc00;stroke-width:0.264583"
       d="m 94.11413,-125.23833 a 60,60 0 0 0 -56.80945,41.057958 c 18.67466,13.952517 57.0714,26.151458 70.6887,30.201778 13.4665,-12.73015 27.83156,-24.729063 41.82536,-33.515787 A 60,60 0 0 0 94.11413,-125.23833 Z m -59.53332,53.478905 a 60,60 0 0 0 -0.46663,6.521049 60,60 0 0 0 33.53438,53.736769 c 10.00095,-11.54799 22.51212,-25.23972 36.11304,-38.429687 -30.32333,-4.15682 -53.39717,-13.403777 -69.18079,-21.828131 z" />
    <path
       id="path2"
       style="fill:#ffcc00;stroke-width:0.264583"
       d="m 151.89322,-82.710472 c -9.22106,10.742025 -44.12191,50.526975 -76.56896,74.5427255 0.75009,0.21175 1.50462,0.40935 2.26239,0.5917 12.46186,-9.9726305 62.91468,-50.9092175 75.52923,-69.9858955 -0.16163,-0.96485 -0.34692,-1.92518 -0.55552,-2.88096 -0.20777,-0.75997 -0.42981,-1.51631 -0.66714,-2.26757 z m 1.90169,8.67131 c -8.58628,9.548585 -38.44355,41.728935 -72.94438,67.3152555 1.02926,0.21205 2.06369,0.3973 3.10266,0.55501 10.97042,-8.2550205 49.99654,-38.3311275 70.21069,-63.2757205 -0.0642,-1.53568 -0.18709,-3.068318 -0.36897,-4.594545 z m 0.62219,9.915155 c -10.01569,9.648403 -47.63509,45.60394 -66.14531,58.7090705 1.45615,0.16554 2.91606,0.2619 4.37647,0.32039 15.44033,-12.0272605 45.06775,-36.0680105 61.62673,-55.7335405 0.0733,-1.09303 0.12846,-2.19017 0.14211,-3.29592 z m -0.88522,9.542573 c -9.93427,8.96094 -43.09229,38.689437 -57.97785,49.5333975 1.76821,-0.0149 3.53435,-0.10909 5.29373,-0.2775 8.99707,-6.3177505 36.05517,-25.6682905 50.18763,-39.6952475 1.08317,-3.08922 1.92758,-6.28264 2.49649,-9.56065 z m -4.80229,15.198537 c -8.10484,7.13088 -26.80542,23.37506 -39.48441,32.6403905 0.29632,-0.0721 0.59345,-0.13928 0.88883,-0.21601 17.41009,-4.7241605 31.27816,-16.8395605 38.59558,-32.4243805 z" />
    <circle
       style="fill:#483e37;stroke-width:0.264583"
       id="path3"
       cx="74.612495"
       cy="204.25832"
       r="60" />
  </g>
</svg>
