<?xml version="1.0" encoding="UTF-8" standalone="no"?>
<!-- Created with Inkscape (http://www.inkscape.org/) -->

<svg
   width="59.403255mm"
   height="62.24868mm"
   viewBox="0 0 59.403255 62.24868"
   version="1.1"
   id="svg1"
   xml:space="preserve"
   inkscape:version="1.3.2 (091e20e, 2023-11-25, custom)"
   sodipodi:docname="maze.svg"
   xmlns:inkscape="http://www.inkscape.org/namespaces/inkscape"
   xmlns:sodipodi="http://sodipodi.sourceforge.net/DTD/sodipodi-0.dtd"
   xmlns="http://www.w3.org/2000/svg"
   xmlns:svg="http://www.w3.org/2000/svg"><sodipodi:namedview
     id="namedview1"
     pagecolor="#ffffff"
     bordercolor="#000000"
     borderopacity="0.25"
     inkscape:showpageshadow="2"
     inkscape:pageopacity="0.0"
     inkscape:pagecheckerboard="0"
     inkscape:deskcolor="#d1d1d1"
     inkscape:document-units="mm"
     inkscape:zoom="1.2623761"
     inkscape:cx="428.953"
     inkscape:cy="379.83927"
     inkscape:window-width="1366"
     inkscape:window-height="697"
     inkscape:window-x="-8"
     inkscape:window-y="-8"
     inkscape:window-maximized="1"
     inkscape:current-layer="layer1" /><defs
     id="defs1" /><g
     inkscape:label="Capa 1"
     inkscape:groupmode="layer"
     id="layer1"
     transform="translate(-31.433068,-68.117247)"><g
       id="g41"><path
         style="fill:none;stroke:#eae920;stroke-width:0.565;stroke-dasharray:none;stroke-opacity:1"
         d="m 31.715569,70.248501 v 58.244009 h 4.742514"
         id="path5" /><path
         style="fill:none;stroke:#eae920;stroke-width:0.564999;stroke-dasharray:none;stroke-opacity:1"
         d="m 36.309879,70.100298 54.242514,0.148203 -0.296407,58.392219 H 40.607784"
         id="path6" /><path
         style="fill:none;stroke:#eae920;stroke-width:0.564999;stroke-dasharray:none;stroke-opacity:1"
         d="m 31.567366,83.586824 h 4.890717 l -0.296408,17.932636 4.742516,-0.1482 -0.148203,4.74251"
         id="path7" /><path
         style="fill:none;stroke:#eae920;stroke-width:0.564999;stroke-dasharray:none;stroke-opacity:1"
         d="m 31.715569,105.96557 h 4.446106 l 0.148204,9.04042"
         id="path8" /><path
         style="fill:none;stroke:#eae920;stroke-width:0.564999;stroke-dasharray:none;stroke-opacity:1"
         d="m 45.202096,110.55988 -9.188624,0.1482"
         id="path9" /><path
         style="fill:none;stroke:#eae920;stroke-width:0.564999;stroke-dasharray:none;stroke-opacity:1"
         d="m 31.641468,119.6003 4.890717,0.0741"
         id="path10" /><path
         style="fill:none;stroke:#eae920;stroke-width:0.564999;stroke-dasharray:none;stroke-opacity:1"
         d="m 36.458083,124.04641 4.52021,0.0741 v -9.04042 h 8.818113 v -8.89222 l -4.520208,-0.0741 0.0741,-13.560627"
         id="path11" /><path
         style="fill:none;stroke:#eae920;stroke-width:0.564999;stroke-dasharray:none;stroke-opacity:1"
         d="m 45.276198,115.08009 v 4.74251"
         id="path12" /><path
         style="fill:none;stroke:#eae920;stroke-width:0.564999;stroke-dasharray:none;stroke-opacity:1"
         d="m 45.127994,124.12051 h 9.262724 l -0.148204,-22.60105 -9.040418,0.0741"
         id="path13" /><path
         style="fill:none;stroke:#eae920;stroke-width:0.564999;stroke-dasharray:none;stroke-opacity:1"
         d="m 49.722304,119.45209 0.0741,4.74252"
         id="path14" /><path
         style="fill:none;stroke:#eae920;stroke-width:0.564999;stroke-dasharray:none;stroke-opacity:1"
         d="M 40.830089,97.147453 H 45.3503"
         id="path15" /><path
         style="fill:none;stroke:#eae920;stroke-width:0.564999;stroke-dasharray:none;stroke-opacity:1"
         d="m 36.235777,92.553143 22.749253,0.0741"
         id="path16" /><path
         style="fill:none;stroke:#eae920;stroke-width:0.564999;stroke-dasharray:none;stroke-opacity:1"
         d="m 49.796406,97.147453 h 9.188624 l -0.222305,-9.040418 4.594309,0.0741 V 74.69461 l -26.973053,0.0741"
         id="path17" /><path
         style="fill:none;stroke:#eae920;stroke-width:0.564999;stroke-dasharray:none;stroke-opacity:1"
         d="m 58.614521,79.140718 h 4.668411"
         id="path18" /><path
         style="fill:none;stroke:#eae920;stroke-width:0.564999;stroke-dasharray:none;stroke-opacity:1"
         d="m 54.168412,74.69461 0.148204,13.560628"
         id="path19" /><path
         style="fill:none;stroke:#eae920;stroke-width:0.564999;stroke-dasharray:none;stroke-opacity:1"
         d="m 36.383981,79.140718 13.486527,0.0741"
         id="path20" /><path
         style="fill:none;stroke:#eae920;stroke-width:0.564999;stroke-dasharray:none;stroke-opacity:1"
         d="m 40.830089,79.140718 0.0741,4.520208 h 18.006737"
         id="path21" /><path
         style="fill:none;stroke:#eae920;stroke-width:0.564999;stroke-dasharray:none;stroke-opacity:1"
         d="m 40.755988,88.181137 9.11452,-0.0741 0.0741,4.372006"
         id="path22" /><path
         style="fill:none;stroke:#eae920;stroke-width:0.564999;stroke-dasharray:none;stroke-opacity:1"
         d="m 67.729041,74.768712 0.0741,-4.520211"
         id="path23" /><path
         style="fill:none;stroke:#eae920;stroke-width:0.564999;stroke-dasharray:none;stroke-opacity:1"
         d="M 72.323353,74.69461 V 70.174399"
         id="path24" /><path
         style="fill:none;stroke:#eae920;stroke-width:0.564999;stroke-dasharray:none;stroke-opacity:1"
         d="m 63.134729,83.586824 h 9.114522"
         id="path25" /><path
         style="fill:none;stroke:#eae920;stroke-width:0.564999;stroke-dasharray:none;stroke-opacity:1"
         d="m 67.729041,79.140718 h 13.63473 v 4.520208"
         id="path26" /><path
         style="fill:none;stroke:#eae920;stroke-width:0.564999;stroke-dasharray:none;stroke-opacity:1"
         d="m 72.249251,79.140718 v 9.11452 l 9.11452,-0.0741 2e-6,4.446108"
         id="path27" /><path
         style="fill:none;stroke:#eae920;stroke-width:0.564999;stroke-dasharray:none;stroke-opacity:1"
         d="m 76.769459,83.660926 -0.0741,4.372007"
         id="path28" /><path
         style="fill:none;stroke:#eae920;stroke-width:0.564999;stroke-dasharray:none;stroke-opacity:1"
         d="m 76.695357,79.140718 0.0741,-4.372006 h 9.188625 l -0.222306,22.526945 -4.594312,-0.0741 0.0741,4.594313 -4.446109,-0.0741 v 4.4461"
         id="path29" /><path
         style="fill:none;stroke:#eae920;stroke-width:0.564999;stroke-dasharray:none;stroke-opacity:1"
         d="m 90.438744,101.65189 -4.663411,0.0524 -0.104796,4.40142 -4.453818,0.0524 0.0524,4.45382 h -9.064831"
         id="path30" /><path
         style="fill:none;stroke:#eae920;stroke-width:0.564999;stroke-dasharray:none;stroke-opacity:1"
         d="m 63.244245,115.11815 h 9.064831 l 0.104796,-18.024873 h 4.401424 l 0.104796,-4.453821 -13.675847,0.0524 0.05239,18.129664"
         id="path31" /><path
         style="fill:none;stroke:#eae920;stroke-width:0.564999;stroke-dasharray:none;stroke-opacity:1"
         d="m 58.790424,101.5471 4.663411,0.10479"
         id="path32" /><path
         style="fill:none;stroke:#eae920;stroke-width:0.564999;stroke-dasharray:none;stroke-opacity:1"
         d="m 58.790424,106.10571 4.558615,0.0524"
         id="path33" /><path
         style="fill:none;stroke:#eae920;stroke-width:0.564999;stroke-dasharray:none;stroke-opacity:1"
         d="m 67.80286,88.238033 v 4.401423"
         id="path34" /><path
         style="fill:none;stroke:#eae920;stroke-width:0.564999;stroke-dasharray:none;stroke-opacity:1"
         d="m 67.750462,97.145675 0.0524,18.024865"
         id="path35" /><path
         style="fill:none;stroke:#eae920;stroke-width:0.564999;stroke-dasharray:none;stroke-opacity:1"
         d="m 90.40419,110.63398 -4.649886,0.0185 0.01852,13.52358 -4.59431,-0.037"
         id="path36" /><path
         style="fill:none;stroke:#eae920;stroke-width:0.564999;stroke-dasharray:none;stroke-opacity:1"
         d="m 81.215568,115.09861 4.483158,0.0185"
         id="path37" /><path
         style="fill:none;stroke:#eae920;stroke-width:0.564999;stroke-dasharray:none;stroke-opacity:1"
         d="m 81.345245,119.61882 -22.508419,-0.0185 0.01852,-8.89221"
         id="path38" /><path
         style="fill:none;stroke:#eae920;stroke-width:0.564999;stroke-dasharray:none;stroke-opacity:1"
         d="m 67.803143,119.65587 0.05558,4.48316 4.631361,0.0185"
         id="path39" /><path
         style="fill:none;stroke:#eae920;stroke-width:0.564999;stroke-dasharray:none;stroke-opacity:1"
         d="m 63.301459,124.13903 -4.483159,0.037 v 4.35349"
         id="path40" /><path
         style="fill:none;stroke:#eae920;stroke-width:0.564999;stroke-dasharray:none;stroke-opacity:1"
         d="m 76.787985,115.19124 -0.01852,13.43095"
         id="path41" /></g></g><g
     inkscape:groupmode="layer"
     id="layer2"
     inkscape:label="Capa 2"
     transform="translate(-31.433068,-68.117247)"><path
       style="fill:none;stroke:#333333;stroke-width:0.564999;stroke-dasharray:none;stroke-opacity:1"
       d="m 33.953828,68.117246 v 4.401423 l 30.600364,1.047959 4.191831,3.772646 8.802843,-4.191831 10.898759,-0.419182 -0.838367,25.570166 -10.689166,9.641213 -2.5151,-0.20959 0.838366,-7.12612 4.611013,-5.030192 -2.72469,-4.401423 -9.222025,-3.982239 -6.916521,4.611013 -1.047959,7.964479 -3.982238,1.257552 0.209592,25.36057 -18.024871,0.41919 v 3.56305"
       id="path42" /></g></svg>
